<svg width="32" height="33" viewBox="0 0 32 33" fill="none" xmlns="http://www.w3.org/2000/svg">
<g clip-path="url(#clip0_29961_3333)">
<path d="M32 16.5C32 20.9072 30.3357 25.0511 27.3137 28.1673C24.292 31.2837 20.2737 33 16 33C11.7263 33 7.70801 31.2837 4.68628 28.1673C1.66431 25.0511 0 20.9072 0 16.5C0 12.0928 1.66431 7.94888 4.68628 4.83273C7.70801 1.71632 11.7263 0 16 0C20.2737 0 24.292 1.71632 27.3137 4.83273C30.3357 7.94888 32 12.0928 32 16.5Z" fill="#0052FF"/>
<path d="M32.001 16.5C32.001 16.1269 31.988 15.7558 31.9644 15.3867L25.3223 8.53702L11.1885 16.1347L6.67969 24.463L14.9214 32.9622C15.2793 32.9867 15.6392 33 16.001 33C20.2747 33 24.293 31.2837 27.3147 28.1673C30.3367 25.0511 32.001 20.9072 32.001 16.5Z" fill="#00177A"/>
<path d="M25.3223 8.53702V24.463H19.8103V16.9061L16.0061 20.8289L16.0054 20.8282L16.001 20.8327L15.614 20.4354L12.1917 16.9061V24.463H6.67969V8.53702H11.8718L16.001 12.7952L20.1301 8.53702H25.3223Z" fill="white"/>
</g>
<defs>
<clipPath id="clip0_29961_3333">
<rect width="32" height="33" fill="white"/>
</clipPath>
</defs>
</svg>
