<svg width="100" height="748" viewBox="0 0 100 748" fill="none" xmlns="http://www.w3.org/2000/svg">
<g filter="url(#filter0_d_13_184)">
<rect width="80" height="728" transform="translate(6 10)" fill="white"/>
<g clip-path="url(#clip0_13_184)">
<path d="M62 50.5C62 54.9072 60.3357 59.0511 57.3137 62.1673C54.292 65.2837 50.2737 67 46 67C41.7263 67 37.708 65.2837 34.6863 62.1673C31.6643 59.0511 30 54.9072 30 50.5C30 46.0928 31.6643 41.9489 34.6863 38.8327C37.708 35.7163 41.7263 34 46 34C50.2737 34 54.292 35.7163 57.3137 38.8327C60.3357 41.9489 62 46.0928 62 50.5Z" fill="#0052FF"/>
<path d="M62 50.5C62 50.1268 61.9871 49.7557 61.9634 49.3866L55.3213 42.537L41.1875 50.1347L36.6787 58.463L44.9204 66.9622C45.2783 66.9866 45.6382 67 46 67C50.2737 67 54.292 65.2837 57.3137 62.1672C60.3357 59.0511 62 54.9072 62 50.5Z" fill="#00177A"/>
<path d="M55.3213 42.537V58.463H49.8093V50.9061L46.0051 54.8289L46.0044 54.8281L46 54.8327L45.613 54.4354L42.1907 50.9061V58.463H36.6787V42.537H41.8708L46 46.7952L50.1292 42.537H55.3213Z" fill="white"/>
</g>
<mask id="mask0_13_184" style="mask-type:alpha" maskUnits="userSpaceOnUse" x="30" y="111" width="32" height="32">
<rect x="30" y="111" width="32" height="32" fill="#C4C4C4"/>
</mask>
<g mask="url(#mask0_13_184)">
</g>
<g clip-path="url(#clip1_13_184)">
<path d="M46 117C51.523 117 56 121.477 56 127C56 132.523 51.523 137 46 137C40.477 137 36 132.523 36 127C36 121.477 40.477 117 46 117ZM46 119C41.582 119 38 122.582 38 127C38 131.418 41.582 135 46 135C50.418 135 54 131.418 54 127C54 122.582 50.418 119 46 119ZM49.833 122.337C50.07 122.171 50.392 122.199 50.596 122.404C50.8 122.608 50.826 122.93 50.659 123.164C48.479 126.21 47.279 127.842 47.061 128.061C46.475 128.646 45.525 128.646 44.939 128.061C44.354 127.475 44.354 126.525 44.939 125.939C45.313 125.566 46.944 124.365 49.833 122.337ZM51.5 126C52.052 126 52.5 126.448 52.5 127C52.5 127.552 52.052 128 51.5 128C50.948 128 50.5 127.552 50.5 127C50.5 126.448 50.948 126 51.5 126ZM40.5 126C41.052 126 41.5 126.448 41.5 127C41.5 127.552 41.052 128 40.5 128C39.948 128 39.5 127.552 39.5 127C39.5 126.448 39.948 126 40.5 126ZM42.818 122.404C43.208 122.794 43.208 123.427 42.818 123.818C42.428 124.208 41.794 124.208 41.404 123.818C41.014 123.428 41.014 122.794 41.404 122.404C41.794 122.014 42.427 122.014 42.818 122.404ZM46 120.5C46.552 120.5 47 120.948 47 121.5C47 122.052 46.552 122.5 46 122.5C45.448 122.5 45 122.052 45 121.5C45 120.948 45.448 120.5 46 120.5Z" fill="#4B4B60"/>
</g>
<mask id="mask1_13_184" style="mask-type:alpha" maskUnits="userSpaceOnUse" x="30" y="187" width="32" height="32">
<rect x="30" y="187" width="32" height="32" fill="#C4C4C4"/>
</mask>
<g mask="url(#mask1_13_184)">
<path d="M46 213C40.477 213 36 208.523 36 203C36 198.522 38.943 194.732 43 193.458V195.582C41.2809 196.28 39.8578 197.554 38.9741 199.185C38.0903 200.817 37.8009 202.704 38.1553 204.526C38.5096 206.347 39.4858 207.988 40.9168 209.169C42.3477 210.35 44.1446 210.997 46 211C47.5938 211 49.1513 210.524 50.4728 209.633C51.7944 208.742 52.82 207.477 53.418 206H55.542C54.268 210.057 50.478 213 46 213ZM55.95 204H45V193.05C45.329 193.017 45.663 193 46 193C51.523 193 56 197.477 56 203C56 203.337 55.983 203.671 55.95 204ZM47 195.062V202H53.938C53.7154 200.238 52.9129 198.599 51.6568 197.343C50.4007 196.087 48.7624 195.285 47 195.062Z" fill="#4B4B60"/>
</g>
<path d="M42 272H45V281H42V284H40V281H37V272H40V269H42V272ZM39 274V279H43V274H39ZM52 277H55V286H52V289H50V286H47V277H50V274H52V277ZM49 279V284H53V279H49Z" fill="#4B4B60"/>
<path d="M54 360H56V362H36V360H38V353C38 350.878 38.8429 348.843 40.3431 347.343C41.8434 345.843 43.8783 345 46 345C48.1217 345 50.1566 345.843 51.6569 347.343C53.1571 348.843 54 350.878 54 353V360ZM52 360V353C52 351.409 51.3679 349.883 50.2426 348.757C49.1174 347.632 47.5913 347 46 347C44.4087 347 42.8826 347.632 41.7574 348.757C40.6321 349.883 40 351.409 40 353V360H52ZM43 364H49V366H43V364Z" fill="#4B4B60"/>
<path d="M40 437H42V439H54V423H42V425H40V422C40 421.735 40.1054 421.48 40.2929 421.293C40.4804 421.105 40.7348 421 41 421H55C55.2652 421 55.5196 421.105 55.7071 421.293C55.8946 421.48 56 421.735 56 422V440C56 440.265 55.8946 440.52 55.7071 440.707C55.5196 440.895 55.2652 441 55 441H41C40.7348 441 40.4804 440.895 40.2929 440.707C40.1054 440.52 40 440.265 40 440V437ZM42 430H49V432H42V435L37 431L42 427V430Z" fill="#4B4B60"/>
</g>
<defs>
<filter id="filter0_d_13_184" x="0" y="0" width="100" height="748" filterUnits="userSpaceOnUse" color-interpolation-filters="sRGB">
<feFlood flood-opacity="0" result="BackgroundImageFix"/>
<feColorMatrix in="SourceAlpha" type="matrix" values="0 0 0 0 0 0 0 0 0 0 0 0 0 0 0 0 0 0 127 0" result="hardAlpha"/>
<feOffset dx="4"/>
<feGaussianBlur stdDeviation="5"/>
<feComposite in2="hardAlpha" operator="out"/>
<feColorMatrix type="matrix" values="0 0 0 0 0.05875 0 0 0 0 0.05875 0 0 0 0 0.3 0 0 0 0.06 0"/>
<feBlend mode="normal" in2="BackgroundImageFix" result="effect1_dropShadow_13_184"/>
<feBlend mode="normal" in="SourceGraphic" in2="effect1_dropShadow_13_184" result="shape"/>
</filter>
<clipPath id="clip0_13_184">
<rect width="32" height="33" fill="white" transform="translate(30 34)"/>
</clipPath>
<clipPath id="clip1_13_184">
<rect width="24" height="24" fill="white" transform="translate(34 115)"/>
</clipPath>
</defs>
</svg>
